<?xml version="1.0" standalone="no"?>
<!DOCTYPE svg PUBLIC "-//W3C//DTD SVG 20010904//EN"
 "http://www.w3.org/TR/2001/REC-SVG-20010904/DTD/svg10.dtd">
<svg version="1.0" xmlns="http://www.w3.org/2000/svg"
 width="640.000000pt" height="640.000000pt" viewBox="0 0 640.000000 640.000000"
 preserveAspectRatio="xMidYMid meet">
<metadata>
Created by potrace 1.14, written by Peter Selinger 2001-2017
</metadata>
<g transform="translate(0.000000,640.000000) scale(0.100000,-0.100000)"
fill="#000000" stroke="none">
<path d="M1455 6358 c-11 -6 -23 -16 -27 -22 -4 -6 -8 -141 -8 -301 l0 -290
-188 0 c-185 0 -188 -1 -227 -27 -59 -38 -91 -77 -109 -131 -14 -43 -16 -296
-16 -2697 0 -2387 2 -2654 16 -2696 20 -58 64 -107 123 -136 l46 -23 1980 1
c1607 0 1987 2 2018 13 70 24 138 102 151 173 3 13 5 492 5 1065 l1 1042 103
0 c117 -2 157 12 182 61 22 42 23 996 1 1038 -30 59 -48 66 -167 68 -61 1
-112 4 -115 6 -2 3 -4 465 -5 1029 0 944 -2 1027 -17 1067 -22 52 -69 103
-119 128 -37 18 -86 19 -1351 21 -723 1 -1316 4 -1319 7 -3 2 -5 133 -5 290
l0 286 -24 19 c-13 10 -32 17 -42 14 -10 -2 -108 -76 -217 -164 -109 -87 -204
-159 -213 -159 -11 0 -181 126 -202 150 -14 16 -222 180 -228 180 -4 0 -16 -6
-27 -12z"/>
</g>
</svg>
